<svg width="13" height="9" viewBox="0 0 13 9" fill="none" xmlns="http://www.w3.org/2000/svg">
<path fill-rule="evenodd" clip-rule="evenodd" d="M0.351588 1.16371C0.576621 0.938744 0.881791 0.812365 1.19999 0.812365C1.51819 0.812365 1.82335 0.938744 2.04839 1.16371L5.99999 5.11531L9.95159 1.16371C10.0623 1.0491 10.1947 0.957678 10.3411 0.894788C10.4875 0.831897 10.645 0.798793 10.8043 0.797409C10.9636 0.796024 11.1217 0.826386 11.2691 0.886723C11.4166 0.94706 11.5506 1.03616 11.6633 1.14883C11.7759 1.26151 11.865 1.39549 11.9254 1.54296C11.9857 1.69044 12.0161 1.84846 12.0147 2.00779C12.0133 2.16713 11.9802 2.32459 11.9173 2.47099C11.8544 2.6174 11.763 2.74981 11.6484 2.86051L6.84839 7.66051C6.62336 7.88547 6.31819 8.01185 5.99999 8.01185C5.68179 8.01185 5.37662 7.88547 5.15159 7.66051L0.351588 2.86051C0.126623 2.63548 0.000244141 2.33031 0.000244141 2.01211C0.000244141 1.69391 0.126623 1.38874 0.351588 1.16371V1.16371Z" fill="white"/>
</svg>
