<svg width="35" height="36" viewBox="0 0 35 36" fill="none" xmlns="http://www.w3.org/2000/svg">
<path d="M6.5625 4.7417V28.8042H19.6875V4.7417H6.5625ZM5.46875 2.5542H20.7812C21.0713 2.5542 21.3495 2.66943 21.5546 2.87455C21.7598 3.07967 21.875 3.35787 21.875 3.64795V29.8979C21.875 30.188 21.7598 30.4662 21.5546 30.6713C21.3495 30.8765 21.0713 30.9917 20.7812 30.9917H5.46875C5.17867 30.9917 4.90047 30.8765 4.69535 30.6713C4.49023 30.4662 4.375 30.188 4.375 29.8979V3.64795C4.375 3.35787 4.49023 3.07967 4.69535 2.87455C4.90047 2.66943 5.17867 2.5542 5.46875 2.5542Z" fill="url(#paint0_linear_125_612)"/>
<path d="M8.75 9.1167H17.5V11.3042H8.75V9.1167ZM8.75 15.6792H17.5V17.8667H8.75V15.6792ZM8.75 22.2417H17.5V24.4292H8.75V22.2417ZM21.875 17.8667H26.25V20.0542H21.875V17.8667ZM21.875 22.2417H26.25V24.4292H21.875V22.2417ZM2.1875 28.8042H32.8125V30.9917H2.1875V28.8042Z" fill="url(#paint1_linear_125_612)"/>
<path d="M21.875 13.4917V28.8042H28.4375V13.4917H21.875ZM20.7812 11.3042H29.5312C29.8213 11.3042 30.0995 11.4194 30.3046 11.6246C30.5098 11.8297 30.625 12.1079 30.625 12.3979V29.8979C30.625 30.188 30.5098 30.4662 30.3046 30.6713C30.0995 30.8765 29.8213 30.9917 29.5312 30.9917H20.7812C20.4912 30.9917 20.213 30.8765 20.0079 30.6713C19.8027 30.4662 19.6875 30.188 19.6875 29.8979V12.3979C19.6875 12.1079 19.8027 11.8297 20.0079 11.6246C20.213 11.4194 20.4912 11.3042 20.7812 11.3042Z" fill="url(#paint2_linear_125_612)"/>
<defs>
<linearGradient id="paint0_linear_125_612" x1="4.375" y1="2.5542" x2="29.7613" y2="18.1765" gradientUnits="userSpaceOnUse">
<stop stop-color="#69E4A3"/>
<stop offset="0.5625" stop-color="#D2E66A"/>
<stop offset="1" stop-color="#FDE753"/>
</linearGradient>
<linearGradient id="paint1_linear_125_612" x1="2.1875" y1="9.1167" x2="22.8801" y2="38.0863" gradientUnits="userSpaceOnUse">
<stop stop-color="#69E4A3"/>
<stop offset="0.5625" stop-color="#D2E66A"/>
<stop offset="1" stop-color="#FDE753"/>
</linearGradient>
<linearGradient id="paint2_linear_125_612" x1="19.6875" y1="11.3042" x2="36.4033" y2="20.5908" gradientUnits="userSpaceOnUse">
<stop stop-color="#69E4A3"/>
<stop offset="0.5625" stop-color="#D2E66A"/>
<stop offset="1" stop-color="#FDE753"/>
</linearGradient>
</defs>
</svg>
