<svg width="35" height="36" viewBox="0 0 35 36" fill="none" xmlns="http://www.w3.org/2000/svg">
<path d="M32.0755 17.865V17.8578C32.0755 13.5443 30.1975 9.67052 27.2154 7.00663L27.2008 6.99448C27.164 6.95478 27.1228 6.91933 27.0781 6.8888L27.0757 6.88759C24.4271 4.56204 21.021 3.28271 17.4964 3.28958C13.8133 3.28958 10.451 4.65736 7.88791 6.91431L7.9037 6.90095C7.87281 6.92438 7.84433 6.95083 7.81867 6.97991V6.98112C6.27783 8.34549 5.04448 10.0217 4.20033 11.8987C3.35617 13.7757 2.92048 15.8106 2.92212 17.8687C2.92212 22.181 4.79766 26.0547 7.77737 28.7198L7.79195 28.732C7.83054 28.7757 7.8737 28.8152 7.92071 28.8498L7.92314 28.851C10.571 31.1731 13.9745 32.4505 17.4964 32.4441C21.0347 32.4496 24.4528 31.1603 27.1061 28.8194L27.0903 28.8328C28.6578 27.4699 29.9143 25.7863 30.7748 23.8957C31.6353 22.0052 32.0797 19.9519 32.0779 17.8748V17.8663L32.0755 17.865ZM26.6554 27.346C25.9333 26.7619 25.1568 26.2485 24.3365 25.813L24.2575 25.7741C25.0021 23.6277 25.4504 21.1533 25.4929 18.5793V18.5599H30.6688C30.4943 21.8899 29.061 25.0292 26.659 27.3423L26.6554 27.346ZM18.1936 25.5178C19.7521 25.6016 21.2086 25.9442 22.5521 26.5017L22.4646 26.4701C21.3883 28.9239 19.8736 30.6099 18.1936 30.9804V25.5178ZM18.1936 24.1282V18.5599H24.1069C24.06 20.8657 23.6602 23.1508 22.9213 25.3356L22.9687 25.1765C21.4606 24.5566 19.8566 24.2023 18.2276 24.1294L18.1948 24.1282H18.1936ZM18.1936 17.1702V11.6019C19.8665 11.5256 21.5134 11.1594 23.061 10.5196L22.9651 10.5548C23.6392 12.5215 24.0535 14.7881 24.1069 17.1447V17.1702H18.1936ZM18.1936 10.2123V4.7521C19.8736 5.1226 21.3883 6.80134 22.4646 9.26237C21.2086 9.7847 19.7521 10.126 18.2289 10.2111L18.1936 10.2123ZM21.6604 5.35339C23.0918 5.83082 24.4305 6.5507 25.618 7.48159L25.5901 7.45972C25.052 7.88245 24.4482 8.28088 23.8117 8.62707L23.7437 8.66108C23.2294 7.44724 22.5222 6.32453 21.6495 5.33639L21.6604 5.34975V5.35339ZM16.8016 4.75575V10.2123C15.3032 10.1358 13.829 9.80305 12.4431 9.22836L12.5306 9.25994C13.6117 6.8062 15.124 5.12138 16.804 4.75089L16.8016 4.75575ZM11.2527 8.65744C10.5942 8.30317 9.96683 7.89398 9.37716 7.43421L9.40632 7.45608C10.5592 6.55251 11.8561 5.84948 13.2424 5.37647L13.3347 5.34853C12.4849 6.30991 11.7925 7.39961 11.2831 8.57727L11.2527 8.65623V8.65744ZM16.804 11.6007V17.169H10.8907C10.9442 14.7869 11.3584 12.5203 12.0799 10.3945L12.0325 10.5536C13.5401 11.1725 15.1432 11.5263 16.7712 11.5995L16.804 11.6007ZM16.804 18.5586V24.1269C15.1311 24.2033 13.4842 24.5695 11.9366 25.2093L12.0325 25.174C11.3584 23.2086 10.9442 20.9407 10.8907 18.5842V18.5586H16.804ZM16.804 25.5166V30.9768C15.124 30.6063 13.6093 28.9275 12.533 26.4665C13.789 25.9442 15.2455 25.604 16.7688 25.519L16.804 25.5178V25.5166ZM13.342 30.3755C11.911 29.8994 10.5724 29.1812 9.38445 28.2521L9.41361 28.274C9.95173 27.8513 10.5554 27.4529 11.192 27.1067L11.26 27.0726C11.77 28.287 12.4772 29.4087 13.353 30.3925L13.342 30.3803V30.3755ZM23.7449 27.0714C24.4495 27.4541 25.0532 27.8513 25.6204 28.2947L25.5913 28.2728C24.4384 29.1764 23.1415 29.8794 21.7552 30.3524L21.6629 30.3803C22.5127 29.4194 23.2051 28.3301 23.7145 27.1528L23.7449 27.0739V27.0714ZM30.6688 17.1702H25.4929C25.4557 14.6569 25.0219 12.1652 24.2077 9.78713L24.2575 9.95476C25.1156 9.50296 25.928 8.96924 26.6833 8.36105L26.6542 8.38291C29.0511 10.6873 30.485 13.815 30.6664 17.135L30.6676 17.169L30.6688 17.1702ZM8.34222 8.38413C9.0419 8.95262 9.82783 9.47373 10.6611 9.91711L10.7401 9.95598C9.99546 12.1024 9.54722 14.5768 9.50471 17.1508V17.1702H4.32756C4.5021 13.8402 5.93543 10.7009 8.33736 8.38777L8.341 8.38413H8.34222ZM4.32877 18.5599H9.50471C9.54195 21.0732 9.97568 23.5649 10.7899 25.9429L10.7401 25.7753C9.82783 26.26 9.04312 26.7811 8.31428 27.369L8.34343 27.3472C5.94647 25.0428 4.51264 21.9151 4.3312 18.5951L4.32999 18.5611L4.32877 18.5599Z" fill="url(#paint0_linear_125_684)"/>
<defs>
<linearGradient id="paint0_linear_125_684" x1="2.92212" y1="3.28955" x2="32.0767" y2="32.4454" gradientUnits="userSpaceOnUse">
<stop stop-color="#69E4A3"/>
<stop offset="0.5625" stop-color="#D2E66A"/>
<stop offset="1" stop-color="#FDE753"/>
</linearGradient>
</defs>
</svg>
