<svg width="33" height="33" viewBox="0 0 33 33" fill="none" xmlns="http://www.w3.org/2000/svg">
<path d="M16.2909 0.61554C20.5928 0.61554 21.1295 0.631373 22.8174 0.710539C24.5036 0.789706 25.6515 1.05412 26.6617 1.44679C27.7067 1.84896 28.587 2.39362 29.4674 3.27237C30.2725 4.06387 30.8955 5.02131 31.2929 6.07804C31.684 7.08662 31.95 8.23612 32.0292 9.92237C32.1036 11.6102 32.1242 12.147 32.1242 16.4489C32.1242 20.7508 32.1084 21.2875 32.0292 22.9754C31.95 24.6616 31.684 25.8095 31.2929 26.8197C30.8966 27.877 30.2735 28.8347 29.4674 29.6254C28.6756 30.4302 27.7183 31.0531 26.6617 31.451C25.6531 31.842 24.5036 32.108 22.8174 32.1872C21.1295 32.2616 20.5928 32.2822 16.2909 32.2822C11.9889 32.2822 11.4522 32.2664 9.76435 32.1872C8.0781 32.108 6.93019 31.842 5.92002 31.451C4.86287 31.0543 3.90527 30.4312 3.11435 29.6254C2.30908 28.834 1.68608 27.8765 1.28877 26.8197C0.896103 25.8111 0.631686 24.6616 0.552519 22.9754C0.478103 21.2875 0.45752 20.7508 0.45752 16.4489C0.45752 12.147 0.473353 11.6102 0.552519 9.92237C0.631686 8.23454 0.896103 7.08821 1.28877 6.07804C1.68498 5.02066 2.30813 4.06296 3.11435 3.27237C3.9055 2.46682 4.86303 1.84378 5.92002 1.44679C6.93019 1.05412 8.07652 0.789706 9.76435 0.710539C11.4522 0.636123 11.9889 0.61554 16.2909 0.61554ZM16.2909 8.53221C14.1912 8.53221 12.1776 9.36628 10.6929 10.8509C9.20826 12.3356 8.37419 14.3492 8.37419 16.4489C8.37419 18.5485 9.20826 20.5621 10.6929 22.0468C12.1776 23.5315 14.1912 24.3655 16.2909 24.3655C18.3905 24.3655 20.4041 23.5315 21.8888 22.0468C23.3734 20.5621 24.2075 18.5485 24.2075 16.4489C24.2075 14.3492 23.3734 12.3356 21.8888 10.8509C20.4041 9.36628 18.3905 8.53221 16.2909 8.53221ZM26.5825 8.13637C26.5825 7.61146 26.374 7.10806 26.0028 6.73689C25.6317 6.36572 25.1283 6.15721 24.6034 6.15721C24.0784 6.15721 23.575 6.36572 23.2039 6.73689C22.8327 7.10806 22.6242 7.61146 22.6242 8.13637C22.6242 8.66128 22.8327 9.16469 23.2039 9.53585C23.575 9.90702 24.0784 10.1155 24.6034 10.1155C25.1283 10.1155 25.6317 9.90702 26.0028 9.53585C26.374 9.16469 26.5825 8.66128 26.5825 8.13637ZM16.2909 11.6989C17.5506 11.6989 18.7588 12.1993 19.6496 13.0901C20.5404 13.9809 21.0409 15.1891 21.0409 16.4489C21.0409 17.7087 20.5404 18.9168 19.6496 19.8076C18.7588 20.6984 17.5506 21.1989 16.2909 21.1989C15.0311 21.1989 13.8229 20.6984 12.9321 19.8076C12.0413 18.9168 11.5409 17.7087 11.5409 16.4489C11.5409 15.1891 12.0413 13.9809 12.9321 13.0901C13.8229 12.1993 15.0311 11.6989 16.2909 11.6989Z" fill="url(#paint0_linear_17_176)"/>
<defs>
<linearGradient id="paint0_linear_17_176" x1="0.45752" y1="0.61554" x2="35.7066" y2="27.6031" gradientUnits="userSpaceOnUse">
<stop stop-color="#D6D6D6"/>
<stop offset="1" stop-color="#949494"/>
</linearGradient>
</defs>
</svg>
