<svg width="38" height="37" viewBox="0 0 38 37" fill="none" xmlns="http://www.w3.org/2000/svg">
<path d="M19.291 0.0426025C9.12245 0.0426025 0.884766 8.28148 0.884766 18.4489C0.884766 28.6162 9.12364 36.8551 19.291 36.8551C29.4596 36.8551 37.6973 28.6162 37.6973 18.4489C37.6973 8.28148 29.4584 0.0426025 19.291 0.0426025ZM28.3315 12.6527L25.3105 26.8884C25.0872 27.8978 24.4863 28.1424 23.648 27.6674L19.0464 24.2759L16.827 26.4134C16.5823 26.658 16.3745 26.8659 15.8995 26.8659L16.2261 22.1824L24.7535 14.4779C25.1252 14.1513 24.6716 13.966 24.1811 14.2926L13.6421 20.9272L9.09989 19.5093C8.11308 19.1982 8.09052 18.5225 9.3077 18.0475L27.0537 11.2039C27.8778 10.907 28.5975 11.4046 28.3303 12.6515L28.3315 12.6527Z" fill="url(#paint0_linear_17_208)"/>
<defs>
<linearGradient id="paint0_linear_17_208" x1="0.884766" y1="0.0426025" x2="41.8618" y2="31.4157" gradientUnits="userSpaceOnUse">
<stop stop-color="#D6D6D6"/>
<stop offset="1" stop-color="#949494"/>
</linearGradient>
</defs>
</svg>
