<svg width="26" height="27" viewBox="0 0 26 27" fill="none" xmlns="http://www.w3.org/2000/svg">
<path d="M16.5206 17.8667L18.3406 16.0467C18.5842 15.8031 18.894 15.6362 19.2315 15.5669C19.569 15.4976 19.9194 15.5288 20.2394 15.6567L22.4559 16.544C22.7826 16.6747 23.0626 16.9003 23.2599 17.1917C23.4571 17.4831 23.5625 17.8269 23.5625 18.1787V22.2095C23.5631 22.4491 23.5148 22.6863 23.4205 22.9065C23.3262 23.1268 23.188 23.3255 23.0143 23.4905C22.8405 23.6554 22.635 23.7832 22.4102 23.866C22.1853 23.9488 21.946 23.9848 21.7068 23.9719C6.17014 23.005 3.03227 9.84573 2.4497 4.8066C2.42149 4.56025 2.44575 4.31072 2.52089 4.07441C2.59603 3.83811 2.72035 3.62039 2.88567 3.43557C3.05099 3.25076 3.25356 3.10304 3.48006 3.00213C3.70656 2.90122 3.95186 2.84941 4.19983 2.8501H8.15914C8.51101 2.85009 8.85481 2.95551 9.14619 3.15276C9.43758 3.35001 9.66318 3.63004 9.79389 3.95673L10.6803 6.17323C10.8083 6.49317 10.8395 6.84362 10.7702 7.18114C10.7008 7.51866 10.534 7.82842 10.2903 8.07204L8.47033 9.89204C8.47033 9.89204 9.47945 16.9868 16.5206 17.8667Z" fill="url(#paint0_linear_34_104)"/>
<path d="M16.25 3.6626V5.2876H19.9761L14.625 10.6387L15.7739 11.7876L21.125 6.43647V10.1626H22.75V3.6626H16.25Z" fill="url(#paint1_linear_34_104)"/>
<defs>
<linearGradient id="paint0_linear_34_104" x1="2.43829" y1="2.8501" x2="25.9524" y2="20.853" gradientUnits="userSpaceOnUse">
<stop stop-color="#D6D6D6"/>
<stop offset="1" stop-color="#F4F4F4"/>
</linearGradient>
<linearGradient id="paint1_linear_34_104" x1="14.625" y1="3.6626" x2="23.6692" y2="10.587" gradientUnits="userSpaceOnUse">
<stop stop-color="#D6D6D6"/>
<stop offset="1" stop-color="#F4F4F4"/>
</linearGradient>
</defs>
</svg>
