<svg width="40" height="41" viewBox="0 0 40 41" fill="none" xmlns="http://www.w3.org/2000/svg">
<path d="M23.805 5.87498L10.85 19.165C10.6225 19.3984 10.4951 19.7115 10.4951 20.0375C10.4951 20.3635 10.6225 20.6765 10.85 20.91L23.805 34.205C23.911 34.3138 24.0377 34.4003 24.1777 34.4594C24.3177 34.5185 24.4681 34.5489 24.62 34.5489C24.7719 34.5489 24.9223 34.5185 25.0623 34.4594C25.2023 34.4003 25.329 34.3138 25.435 34.205C25.653 33.9817 25.7751 33.682 25.7751 33.37C25.7751 33.0579 25.653 32.7582 25.435 32.535L13.2525 20.0375L25.435 7.54248C25.6523 7.31935 25.7739 7.02019 25.7739 6.70873C25.7739 6.39727 25.6523 6.09811 25.435 5.87498C25.329 5.76612 25.2023 5.6796 25.0623 5.62052C24.9223 5.56144 24.7719 5.53101 24.62 5.53101C24.4681 5.53101 24.3177 5.56144 24.1777 5.62052C24.0377 5.6796 23.911 5.76612 23.805 5.87498Z" fill="white"/>
</svg>
