<svg width="112" height="59" viewBox="0 0 112 59" fill="none" xmlns="http://www.w3.org/2000/svg">
<g filter="url(#filter0_d_218_1552)">
<path d="M34.0797 41.9687C34.0797 34.57 40.0775 28.5721 47.4762 28.5721H105.811C106.633 28.5721 107.3 29.2385 107.3 30.0606V37.5031C107.3 44.9018 101.302 50.8997 93.9033 50.8997H35.5682C34.7461 50.8997 34.0797 50.2332 34.0797 49.4112V41.9687Z" fill="#A854D4"/>
<path d="M4 18.9784V0H7.34913V18.9784C7.34913 19.8715 7.44837 20.6034 7.64683 21.174C7.87011 21.7197 8.20502 22.1167 8.65157 22.3648C9.09812 22.588 9.53227 22.7369 9.95401 22.8113C10.3758 22.8857 10.9339 22.923 11.6286 22.923V26.0488C8.85004 26.0488 6.87777 25.5154 5.71178 24.4487C4.57059 23.3819 4 21.5585 4 18.9784Z" fill="white"/>
<path d="M18.8676 26.0488H15.5929V11.3126H12.5415L14.03 8.18677H18.8676V26.0488ZM15.444 4.46551C15.1215 4.04377 14.9603 3.58481 14.9603 3.08864C14.9603 2.59248 15.1215 2.14593 15.444 1.74899C15.7665 1.32725 16.2627 1.11638 16.9325 1.11638C17.6024 1.11638 18.0985 1.32725 18.421 1.74899C18.7435 2.14593 18.9048 2.59248 18.9048 3.08864C18.9048 3.58481 18.7435 4.04377 18.421 4.46551C18.0985 4.86245 17.6024 5.06091 16.9325 5.06091C16.2627 5.06091 15.7665 4.86245 15.444 4.46551Z" fill="white"/>
<path d="M23.8419 0H27.191V17.1178C27.191 19.0777 27.6872 20.6034 28.6795 21.6949C29.6966 22.7617 31.0859 23.2951 32.8473 23.2951C34.6831 23.2951 36.122 22.7741 37.164 21.7322C38.2059 20.6654 38.7269 19.1273 38.7269 17.1178C38.7269 15.2075 38.1563 13.7066 37.0151 12.6151C35.8987 11.4987 34.4226 10.9405 32.5868 10.9405C31.0239 10.9405 29.6718 11.3871 28.5307 12.2802V8.93102C29.8951 8.18677 31.3712 7.81464 32.9589 7.81464C35.5886 7.81464 37.7594 8.67053 39.4711 10.3823C41.2077 12.0693 42.076 14.3144 42.076 17.1178C42.076 20.07 41.1705 22.3648 39.3595 24.0021C37.5733 25.6147 35.3157 26.4209 32.5868 26.4209C29.9819 26.4209 27.8732 25.5775 26.2607 23.8905C24.6481 22.2035 23.8419 19.9459 23.8419 17.1178V0Z" fill="white"/>
<path d="M54.7181 7.81464C58.9356 7.9883 61.0443 9.73729 61.0443 13.0616C61.0443 17.2046 58.3278 19.2761 52.8947 19.2761H51.369V16.4108H53.1552C54.8174 16.4108 55.971 16.1627 56.616 15.6665C57.261 15.1455 57.5835 14.2896 57.5835 13.0988C57.5835 12.3298 57.2982 11.7592 56.7276 11.3871C56.157 10.9901 55.4252 10.7917 54.5321 10.7917C52.7707 10.7917 51.3814 11.4119 50.3643 12.6523C49.3719 13.8927 48.8758 15.3812 48.8758 17.1178C48.8758 18.9536 49.4091 20.4421 50.4759 21.5833C51.5675 22.7245 52.9815 23.2951 54.7181 23.2951C56.2811 23.2951 57.5587 22.9106 58.551 22.1415L60.7838 24.337C59.072 25.7263 57.0501 26.4209 54.7181 26.4209C51.89 26.4209 49.6324 25.5899 47.9454 23.9277C46.2585 22.2655 45.415 20.1196 45.415 17.4899C45.415 14.5625 46.2461 12.1933 47.9082 10.3823C49.5704 8.5713 51.8404 7.71541 54.7181 7.81464Z" fill="white"/>
<path d="M64.203 26.0488V15.8898C64.203 13.0368 64.7364 11.0645 65.8031 9.97297C66.3241 9.42719 66.9567 9.01785 67.701 8.74496C68.4452 8.47207 69.0902 8.31081 69.636 8.2612C70.2066 8.21158 70.9757 8.18677 71.9432 8.18677H75.2179V11.3126H71.2734C70.7772 11.3126 70.3927 11.325 70.1198 11.3498C69.8469 11.3746 69.5244 11.4615 69.1523 11.6103C68.7801 11.7592 68.4576 11.9949 68.1847 12.3174C67.7134 12.9128 67.4777 14.1036 67.4777 15.8898V26.0488H64.203Z" fill="white"/>
<path d="M75.765 11.3126L82.4261 4.65157V8.18677H87.4498V11.3126H82.4261V18.9784C82.4261 19.8467 82.5625 20.5662 82.8354 21.1367C83.1331 21.7073 83.5549 22.1167 84.1007 22.3648C84.6464 22.588 85.155 22.7369 85.6264 22.8113C86.1226 22.8857 86.7304 22.923 87.4498 22.923V26.0488C84.5968 26.0488 82.4881 25.503 81.1237 24.4115C79.7592 23.3199 79.077 21.5089 79.077 18.9784V11.3126H75.765Z" fill="white"/>
<path d="M90.4408 8.18677H93.7155V17.5271C93.7155 19.5366 94.0256 20.9383 94.6458 21.7322C95.266 22.526 96.4072 22.923 98.0693 22.923H101.977V8.18677H105.251V25.1557C105.251 28.2568 104.433 30.5887 102.795 32.1517C101.183 33.7394 98.6399 34.5333 95.1668 34.5333H92.4874V31.4074H94.8318C99.3718 31.4074 101.753 29.6212 101.977 26.0488H98.8508C95.6009 26.0488 93.3806 25.4782 92.1898 24.337C91.0238 23.1958 90.4408 20.8763 90.4408 17.3783V8.18677Z" fill="white"/>
<path d="M42.7367 40.1705L47.5409 42.0094V43.7319L41.4139 41.0282V39.8871L42.7367 40.1705ZM47.5409 38.666L42.7367 40.5339L41.4139 40.7883V39.6472L47.5409 36.9508V38.666Z" fill="white"/>
<path d="M56.1536 41.5805H57.549C57.4763 42.2492 57.285 42.8476 56.9748 43.3758C56.6647 43.9039 56.2262 44.323 55.6593 44.6331C55.0924 44.9384 54.385 45.091 53.537 45.091C52.9168 45.091 52.3523 44.9747 51.8436 44.7422C51.3397 44.5096 50.906 44.1801 50.5426 43.7537C50.1792 43.3225 49.8982 42.8064 49.6995 42.2056C49.5057 41.5999 49.4088 40.9264 49.4088 40.1851V39.1312C49.4088 38.3898 49.5057 37.7188 49.6995 37.1179C49.8982 36.5123 50.1816 35.9938 50.5499 35.5626C50.923 35.1313 51.3712 34.7994 51.8945 34.5668C52.4178 34.3343 53.0065 34.218 53.6606 34.218C54.4601 34.218 55.136 34.3682 55.6884 34.6686C56.2408 34.969 56.6696 35.3857 56.9748 35.9187C57.285 36.4468 57.4763 37.0598 57.549 37.7575H56.1536C56.0857 37.2633 55.9597 36.8393 55.7756 36.4856C55.5915 36.1271 55.3298 35.8509 54.9907 35.657C54.6515 35.4632 54.2081 35.3663 53.6606 35.3663C53.1906 35.3663 52.7763 35.456 52.4178 35.6352C52.064 35.8145 51.7661 36.0689 51.5238 36.3984C51.2864 36.7279 51.1071 37.1228 50.9859 37.5831C50.8648 38.0434 50.8042 38.5546 50.8042 39.1167V40.1851C50.8042 40.7035 50.8575 41.1905 50.9641 41.646C51.0756 42.1014 51.2428 42.5012 51.4656 42.8452C51.6885 43.1892 51.972 43.4605 52.316 43.6592C52.66 43.853 53.067 43.9499 53.537 43.9499C54.133 43.9499 54.6079 43.8554 54.9616 43.6665C55.3153 43.4775 55.5818 43.2062 55.7611 42.8525C55.9452 42.4987 56.076 42.0748 56.1536 41.5805Z" fill="white"/>
<path d="M58.9009 41.1008V40.9337C58.9009 40.3668 58.9833 39.841 59.148 39.3565C59.3127 38.8671 59.5502 38.4431 59.8603 38.0846C60.1704 37.7212 60.5459 37.4402 60.9868 37.2415C61.4278 37.038 61.922 36.9362 62.4695 36.9362C63.0219 36.9362 63.5185 37.038 63.9595 37.2415C64.4053 37.4402 64.7832 37.7212 65.0933 38.0846C65.4082 38.4431 65.6481 38.8671 65.8128 39.3565C65.9776 39.841 66.0599 40.3668 66.0599 40.9337V41.1008C66.0599 41.6678 65.9776 42.1935 65.8128 42.678C65.6481 43.1626 65.4082 43.5865 65.0933 43.9499C64.7832 44.3085 64.4077 44.5895 63.9667 44.793C63.5307 44.9917 63.0364 45.091 62.4841 45.091C61.9317 45.091 61.435 44.9917 60.9941 44.793C60.5532 44.5895 60.1752 44.3085 59.8603 43.9499C59.5502 43.5865 59.3127 43.1626 59.148 42.678C58.9833 42.1935 58.9009 41.6678 58.9009 41.1008ZM60.2455 40.9337V41.1008C60.2455 41.4933 60.2915 41.864 60.3836 42.2129C60.4756 42.5569 60.6137 42.8621 60.7979 43.1286C60.9868 43.3951 61.2218 43.6059 61.5029 43.761C61.7839 43.9112 62.111 43.9863 62.4841 43.9863C62.8523 43.9863 63.1745 43.9112 63.4507 43.761C63.7317 43.6059 63.9643 43.3951 64.1484 43.1286C64.3326 42.8621 64.4707 42.5569 64.5627 42.2129C64.6596 41.864 64.7081 41.4933 64.7081 41.1008V40.9337C64.7081 40.546 64.6596 40.1802 64.5627 39.8362C64.4707 39.4873 64.3301 39.1796 64.1412 38.9132C63.9571 38.6418 63.7245 38.4286 63.4434 38.2736C63.1673 38.1185 62.8426 38.041 62.4695 38.041C62.1013 38.041 61.7766 38.1185 61.4956 38.2736C61.2194 38.4286 60.9868 38.6418 60.7979 38.9132C60.6137 39.1796 60.4756 39.4873 60.3836 39.8362C60.2915 40.1802 60.2455 40.546 60.2455 40.9337Z" fill="white"/>
<path d="M72.703 43.4194V33.7819H74.0548V44.9457H72.8193L72.703 43.4194ZM67.4118 41.1008V40.9482C67.4118 40.3474 67.4845 39.8023 67.6299 39.3129C67.7801 38.8187 67.9908 38.3947 68.2622 38.041C68.5384 37.6873 68.8654 37.4159 69.2434 37.227C69.6262 37.0331 70.0526 36.9362 70.5226 36.9362C71.0168 36.9362 71.448 37.0234 71.8163 37.1979C72.1894 37.3675 72.4462 37.5145 72.703 37.8439C72.703 38.6006 72.703 38.8382 72.703 39.2003C72.8532 39.6606 72.9864 40.0646 73.0446 40.646V41.4182C72.9913 41.9948 72.703 42.6118 72.703 43.4194C72.7611 43.9499 72.711 43.5249 72.7611 44.088C72.5043 44.4127 72.1894 44.6622 71.8163 44.8366C71.4432 45.0062 71.0071 45.091 70.508 45.091C70.0477 45.091 69.6262 44.9917 69.2434 44.793C68.8654 44.5944 68.5384 44.3158 68.2622 43.9572C67.9908 43.5986 67.7801 43.1771 67.6299 42.6926C67.4845 42.2032 67.4118 41.6726 67.4118 41.1008ZM68.7637 40.9482V41.1008C68.7637 41.4933 68.8024 41.8616 68.88 42.2056C68.9623 42.5496 69.0883 42.8525 69.2579 43.1141C69.4275 43.3758 69.6431 43.5817 69.9048 43.7319C70.1664 43.8773 70.4789 43.9499 70.8423 43.9499C71.2881 43.9499 71.654 43.8554 71.9398 43.6665C72.2306 43.4775 72.4631 43.228 72.6376 42.9179C72.812 42.6078 72.8847 42.3124 72.9817 41.949L73.0446 40.646C72.9864 40.3795 72.8765 39.6384 72.765 39.3913C72.6584 39.1393 72.5431 38.9107 72.3686 38.7169C72.1991 38.5182 71.9883 38.3608 71.7363 38.2445C71.4892 38.1282 71.1961 38.0701 70.8569 38.0701C70.4886 38.0701 70.1713 38.1476 69.9048 38.3026C69.6431 38.4528 69.4275 38.6612 69.2579 38.9277C69.0883 39.1893 68.9623 39.4946 68.88 39.8435C68.8024 40.1875 68.7637 40.5557 68.7637 40.9482Z" fill="white"/>
<path d="M79.4114 45.091C78.8639 45.091 78.3672 44.999 77.9215 44.8148C77.4805 44.6259 77.1002 44.3618 76.7804 44.0226C76.4654 43.6834 76.2232 43.2813 76.0536 42.8161C75.884 42.351 75.7992 41.8422 75.7992 41.2898V40.9846C75.7992 40.345 75.8937 39.7756 76.0826 39.2766C76.2716 38.7726 76.5284 38.3462 76.8531 37.9974C77.1777 37.6485 77.5459 37.3844 77.9578 37.2052C78.3697 37.0259 78.7961 36.9362 79.237 36.9362C79.799 36.9362 80.2836 37.0331 80.6906 37.227C81.1025 37.4208 81.4392 37.6921 81.7009 38.041C81.9625 38.385 82.1563 38.792 82.2823 39.262C82.4083 39.7272 82.4713 40.2359 82.4713 40.7883V41.3916H76.5987V40.2941H81.1267V40.1923C81.1073 39.8435 81.0346 39.5043 80.9086 39.1748C80.7875 38.8453 80.5937 38.574 80.3272 38.3608C80.0607 38.1476 79.6973 38.041 79.237 38.041C78.9317 38.041 78.6507 38.1064 78.3939 38.2372C78.1371 38.3632 77.9166 38.5522 77.7325 38.8041C77.5484 39.0561 77.4054 39.3638 77.3037 39.7272C77.2019 40.0906 77.151 40.5097 77.151 40.9846V41.2898C77.151 41.6629 77.2019 42.0142 77.3037 42.3437C77.4103 42.6683 77.5629 42.9542 77.7616 43.2013C77.9651 43.4484 78.2098 43.6423 78.4956 43.7828C78.7864 43.9233 79.1159 43.9935 79.4841 43.9935C79.9589 43.9935 80.3611 43.8966 80.6906 43.7028C81.0201 43.509 81.3084 43.2498 81.5555 42.9251L82.3695 43.572C82.1999 43.8288 81.9843 44.0735 81.7227 44.3061C81.461 44.5386 81.1388 44.7276 80.756 44.873C80.3781 45.0183 79.9299 45.091 79.4114 45.091Z" fill="white"/>
<path d="M88.8236 40.4613L83.9322 38.637V36.9435L90.2118 39.64V40.7883L88.8236 40.4613ZM83.9322 42.0312L88.8381 40.1705L90.2118 39.8798V41.0209L83.9322 43.7246V42.0312Z" fill="white"/>
</g>
<defs>
<filter id="filter0_d_218_1552" x="0" y="0" width="111.3" height="58.8997" filterUnits="userSpaceOnUse" color-interpolation-filters="sRGB">
<feFlood flood-opacity="0" result="BackgroundImageFix"/>
<feColorMatrix in="SourceAlpha" type="matrix" values="0 0 0 0 0 0 0 0 0 0 0 0 0 0 0 0 0 0 127 0" result="hardAlpha"/>
<feOffset dy="4"/>
<feGaussianBlur stdDeviation="2"/>
<feComposite in2="hardAlpha" operator="out"/>
<feColorMatrix type="matrix" values="0 0 0 0 0 0 0 0 0 0 0 0 0 0 0 0 0 0 0.25 0"/>
<feBlend mode="normal" in2="BackgroundImageFix" result="effect1_dropShadow_218_1552"/>
<feBlend mode="normal" in="SourceGraphic" in2="effect1_dropShadow_218_1552" result="shape"/>
</filter>
</defs>
</svg>
